<svg xmlns="http://www.w3.org/2000/svg" xmlns:xlink="http://www.w3.org/1999/xlink" width="544" zoomAndPan="magnify" viewBox="0 0 408 407.999985" height="544" preserveAspectRatio="xMidYMid meet" version="1.0"><path fill="#ffffff" d="M 343.476562 175.792969 C 331.144531 209.320312 311.117188 237.058594 284.066406 259.792969 C 281.988281 261.539062 281.226562 263.351562 281.242188 265.953125 C 281.332031 278.460938 281.363281 290.972656 281.273438 303.480469 C 281.1875 315.207031 276.550781 324.019531 264.824219 327.9375 C 262.816406 328.609375 262.433594 329.882812 262.554688 331.695312 C 263.226562 341.511719 263.867188 351.332031 264.539062 361.152344 C 265.09375 369.207031 265.707031 377.261719 266.234375 385.320312 C 266.410156 388 265.554688 390.320312 262.523438 390.476562 C 259.554688 390.628906 258.800781 388.179688 258.613281 385.828125 C 257.976562 377.902344 257.425781 369.96875 256.945312 362.03125 C 256.339844 351.949219 255.738281 341.867188 255.351562 331.773438 C 255.238281 328.898438 253.863281 328.511719 251.515625 328.527344 C 241.535156 328.585938 231.550781 328.566406 221.570312 328.535156 C 218.679688 328.523438 215.746094 328.902344 212.960938 327.710938 C 211.765625 327.203125 210.75 327.800781 209.75 328.351562 C 199.421875 334.066406 188.308594 337.183594 176.613281 338.257812 C 173.761719 338.519531 171.75 339.800781 169.773438 341.777344 C 152.199219 359.320312 132.3125 373.265625 108.332031 380.722656 C 107.011719 381.132812 105.65625 381.5 104.285156 381.691406 C 100.742188 382.1875 98.867188 383.800781 99.328125 387.714844 C 99.664062 390.578125 98.871094 393.433594 95.394531 393.394531 C 92.136719 393.355469 91.476562 390.554688 91.675781 387.855469 C 91.894531 384.886719 90.824219 383.964844 87.804688 383.914062 C 64.394531 383.527344 48.867188 370.539062 43.773438 347.359375 C 40.839844 334.015625 42.160156 320.773438 44.460938 307.515625 C 48.195312 286.042969 55.027344 265.683594 66.324219 246.972656 C 79.804688 224.640625 99.035156 210.160156 124.875 205.140625 C 128.992188 204.339844 130.230469 202.703125 130.386719 198.449219 C 130.652344 191.089844 128.734375 185.382812 124.242188 179.167969 C 119.433594 172.515625 115.082031 168.464844 106.5 166.996094 C 93.738281 164.808594 85.542969 150.113281 88.476562 137.488281 C 89.308594 133.898438 88.683594 131.035156 87.28125 127.753906 C 80.683594 112.324219 79.289062 96.503906 85.390625 80.589844 C 88.921875 71.367188 95.433594 64.601562 104.480469 60.511719 C 107.171875 59.292969 109.003906 57.488281 110.464844 55.003906 C 122.039062 35.324219 143.382812 26.660156 165.40625 32.761719 C 168.5625 33.636719 171.335938 33.816406 174.503906 32.4375 C 191.96875 24.832031 210.296875 30.433594 220.574219 46.441406 C 222.742188 49.816406 225.214844 52.625 228.789062 54.578125 C 250.902344 66.667969 254.847656 98.953125 237.625 117.527344 C 235.253906 120.085938 234.460938 122.609375 234.539062 125.976562 C 234.863281 140.519531 234.773438 155.015625 230.128906 169.089844 C 225.09375 184.335938 215.445312 195.042969 200.257812 200.574219 C 199.664062 200.789062 199.074219 201.015625 198.488281 201.257812 C 197.617188 201.621094 196.925781 202.183594 197.015625 203.214844 C 197.121094 204.40625 198.113281 204.460938 198.996094 204.523438 C 205.054688 204.945312 211.167969 205.25 217.152344 204.25 C 241.839844 200.128906 260.367188 186.785156 273.433594 165.695312 C 280.878906 153.679688 285.992188 140.675781 288.777344 126.792969 C 289.441406 123.488281 290.367188 120.523438 294.898438 120.96875 C 294.574219 120.375 294.484375 119.984375 294.242188 119.796875 C 287.011719 114.300781 282.933594 106.722656 279.898438 98.402344 C 278.363281 94.179688 275.523438 90.75 272.609375 87.410156 C 271.445312 86.078125 270.171875 84.839844 269.015625 83.503906 C 264.875 78.734375 264.191406 74.542969 266.835938 70.457031 C 269.40625 66.488281 274.960938 64.898438 280.390625 66.375 C 285.480469 67.757812 289.144531 71.1875 292.945312 74.960938 C 294.101562 73.058594 293.929688 71.175781 293.933594 69.359375 C 293.976562 57.742188 293.917969 46.121094 295.476562 34.574219 C 295.96875 30.9375 296.726562 27.355469 298.558594 24.121094 C 300.523438 20.648438 303.511719 18.609375 307.535156 18.894531 C 311.613281 19.1875 314.171875 21.664062 315.34375 25.574219 C 315.554688 26.273438 315.832031 26.953125 316.257812 28.136719 C 317.390625 25.183594 318.253906 22.617188 319.351562 20.15625 C 321.40625 15.566406 324.570312 12.328125 330.050781 12.65625 C 335.449219 12.980469 337.492188 16.734375 338.550781 21.382812 C 338.605469 21.609375 338.816406 21.796875 339.078125 22.195312 C 344.035156 20.496094 348.886719 19.792969 352.402344 25.144531 C 355.328125 29.605469 353.992188 34.636719 354.339844 39.785156 C 358.117188 37.609375 361.886719 36.121094 365.394531 39.242188 C 369.015625 42.460938 369.078125 46.765625 368.035156 51.164062 C 365.796875 60.613281 363.074219 69.957031 362.28125 79.699219 C 361.648438 87.488281 362.050781 95.332031 360.570312 103.082031 C 359.140625 110.570312 356.390625 117.339844 351.433594 123.175781 C 350.539062 124.230469 349.574219 125.324219 349.042969 126.570312 C 347.976562 129.085938 347.203125 131.585938 350.816406 133.054688 C 353.210938 134.027344 353.308594 136.238281 352.980469 138.539062 C 351.167969 151.203125 348.050781 163.53125 343.476562 175.792969 M 67.578125 259.773438 C 64.933594 265.230469 62.417969 270.746094 60.421875 276.480469 C 53.101562 297.480469 47.613281 318.820312 50.324219 341.335938 C 52.210938 356.984375 59.339844 369.175781 75.023438 374.640625 C 84.402344 377.90625 93.929688 377.085938 103.378906 374.523438 C 125.019531 368.644531 142.914062 356.339844 159.492188 341.789062 C 159.742188 341.570312 159.816406 341.148438 160.042969 340.667969 C 146.574219 329.230469 140.996094 313.871094 138.878906 297.085938 C 137.238281 296.738281 136.269531 297.429688 135.265625 297.902344 C 124.066406 303.164062 112.871094 308.449219 101.679688 313.730469 C 95.96875 316.425781 90.261719 319.125 84.554688 321.824219 C 82.324219 322.875 80.0625 323.425781 78.648438 320.753906 C 77.136719 317.902344 78.90625 316.28125 81.253906 315.058594 C 81.816406 314.765625 82.371094 314.464844 82.945312 314.195312 C 89.355469 311.210938 95.589844 307.710938 102.242188 305.410156 C 107.820312 303.480469 109.929688 299.894531 110.421875 294.605469 C 110.445312 294.351562 110.460938 294.097656 110.511719 293.851562 C 111.582031 288.664062 112.5625 283.453125 113.777344 278.300781 C 114.277344 276.167969 115.671875 274.625 118.199219 275.230469 C 120.515625 275.78125 120.964844 277.582031 120.761719 279.648438 C 120.675781 280.523438 120.457031 281.386719 120.289062 282.25 C 119.304688 287.285156 118.320312 292.316406 117.164062 298.222656 C 125.65625 294.308594 133.289062 290.769531 140.9375 287.265625 C 143.546875 286.074219 145.5625 284.257812 147.144531 281.878906 C 150.304688 277.121094 154.046875 272.828125 158.15625 268.890625 C 167.152344 260.261719 176.660156 252.203125 189.074219 249.117188 C 192.96875 248.148438 194.160156 246.863281 194.058594 242.972656 C 193.902344 237.109375 195.734375 235.554688 201.480469 235.546875 C 214.625 235.527344 227.769531 235.53125 240.910156 235.53125 C 252.03125 235.53125 263.152344 235.515625 274.273438 235.546875 C 279.21875 235.558594 280.878906 237.109375 281.15625 242.011719 C 281.25 243.640625 280.988281 245.285156 280.957031 246.925781 C 280.925781 248.519531 280.597656 250.195312 282.183594 251.890625 C 315.886719 221.542969 337.632812 184.695312 345.597656 139.234375 C 328.855469 135.78125 312.730469 132.457031 296.40625 129.089844 C 282.566406 180.34375 254.285156 213.800781 196.820312 212.699219 C 195.890625 221.351562 191.242188 227.710938 183.160156 231.441406 C 165.789062 239.46875 138.304688 231.046875 131.773438 214.109375 C 130.976562 212.046875 129.679688 211.609375 127.613281 212 C 115.761719 214.238281 104.925781 218.792969 95.128906 225.859375 C 83.050781 234.574219 74.476562 246.132812 67.578125 259.773438 M 166.777344 102.152344 C 164.550781 103.042969 162.339844 103.558594 160.625 101.246094 C 158.90625 98.925781 160.214844 96.945312 161.519531 95.027344 C 164.894531 90.070312 167.515625 84.777344 168.632812 78.839844 C 168.910156 77.371094 169.566406 75.757812 168.199219 74.222656 C 166.425781 76.035156 166.101562 78.226562 165.417969 80.210938 C 162.996094 87.230469 159.394531 93.5625 154.515625 99.136719 C 150.550781 103.667969 145.945312 107.378906 140.039062 109.089844 C 137.707031 109.765625 135.425781 109.425781 133.910156 107.304688 C 132.503906 105.339844 133.421875 103.421875 134.523438 101.664062 C 135.863281 99.523438 137.445312 97.519531 138.644531 95.308594 C 139.609375 93.523438 140.933594 91.722656 140.472656 89.425781 C 140 89.425781 139.714844 89.34375 139.523438 89.441406 C 139.195312 89.609375 138.84375 89.832031 138.644531 90.128906 C 133.378906 97.953125 128.914062 105.984375 129.011719 115.917969 C 129.082031 122.898438 129.640625 129.757812 131.148438 136.566406 C 131.816406 139.589844 130.539062 141.816406 127.613281 142.820312 C 124.535156 143.875 122.410156 142.449219 121.25 139.65625 C 120.484375 137.804688 120.011719 135.816406 119.546875 133.859375 C 118.761719 130.527344 117.003906 128.132812 113.601562 127.144531 C 105.332031 124.738281 96.480469 130.777344 95.710938 139.351562 C 94.460938 153.222656 104.152344 162.535156 118.117188 160.75 C 120.988281 160.382812 122.648438 161.28125 123.632812 163.996094 C 125.992188 170.515625 129.71875 176.195312 134.753906 180.957031 C 136.722656 182.820312 137.640625 184.878906 137.550781 187.644531 C 137.382812 192.820312 137.730469 198.015625 137.460938 203.183594 C 137.050781 211.003906 140.738281 216.421875 146.875 220.597656 C 154.421875 225.730469 162.828125 227.21875 171.792969 226.625 C 182.871094 225.894531 189.074219 219.382812 189.371094 208.421875 C 189.46875 204.820312 188.28125 203.816406 184.808594 204.066406 C 177.726562 204.570312 170.648438 204.285156 163.792969 202.175781 C 161.585938 201.5 159.246094 200.347656 160.171875 197.382812 C 161.023438 194.652344 163.210938 194.425781 165.734375 195.167969 C 171.242188 196.789062 176.914062 197.335938 182.609375 196.871094 C 198.242188 195.589844 211.035156 189.308594 219.15625 175.289062 C 225.300781 164.679688 226.519531 152.84375 227.15625 140.964844 C 227.761719 129.726562 226.691406 118.492188 226.527344 107.253906 C 226.488281 104.5625 225.175781 103.714844 222.90625 103.4375 C 218.855469 102.9375 215.050781 101.671875 211.367188 99.917969 C 200.019531 94.511719 192.585938 85.289062 186.527344 74.679688 C 185.898438 73.574219 185.796875 72.007812 184.28125 71.4375 C 183.152344 72.832031 183.246094 74.410156 182.886719 75.851562 C 180.3125 86.105469 176.265625 95.480469 166.777344 102.152344 M 301.996094 44.421875 C 301.667969 55.023438 301.429688 65.628906 300.945312 76.21875 C 300.804688 79.304688 301.132812 80.765625 304.863281 81.277344 C 315.53125 82.730469 323.121094 92.050781 324.632812 103.324219 C 324.925781 105.5 324.082031 107.417969 321.582031 107.804688 C 319.246094 108.171875 318.144531 106.6875 317.585938 104.660156 C 317.484375 104.292969 317.453125 103.910156 317.363281 103.542969 C 314.777344 92.734375 309.394531 88.101562 298.414062 87.457031 C 295.433594 87.28125 293.035156 86.203125 291.121094 84 C 289.960938 82.667969 288.933594 81.21875 287.78125 79.882812 C 284.921875 76.558594 281.632812 73.855469 277.148438 73.113281 C 275.46875 72.832031 273.746094 73.050781 272.820312 74.714844 C 271.984375 76.222656 273.1875 77.328125 274.015625 78.40625 C 274.707031 79.308594 275.453125 80.175781 276.253906 80.976562 C 281.425781 86.136719 285.445312 92.050781 287.933594 98.933594 C 289.914062 104.410156 293.058594 109.015625 297.507812 112.78125 C 300.054688 114.933594 302.199219 117.414062 302.671875 120.90625 C 302.910156 122.667969 304.222656 123.039062 305.621094 123.332031 C 316.246094 125.546875 326.871094 127.746094 337.488281 129.988281 C 339.53125 130.417969 340.859375 130.226562 341.148438 127.675781 C 341.546875 124.171875 343.472656 121.308594 345.746094 118.710938 C 347.003906 117.273438 347.996094 115.691406 348.953125 114.042969 C 353.214844 106.710938 354.660156 98.632812 354.546875 90.367188 C 354.398438 79.785156 355.949219 69.507812 358.585938 59.332031 C 359.503906 55.789062 360.566406 52.285156 361.386719 48.726562 C 361.648438 47.589844 362.078125 45.949219 360.621094 45.328125 C 359.023438 44.648438 358.035156 46.015625 357.335938 47.199219 C 354.625 51.789062 352.589844 56.671875 351.285156 61.847656 C 350.726562 64.050781 350.261719 66.28125 349.605469 68.453125 C 349.082031 70.167969 347.859375 71.347656 345.964844 71.132812 C 343.96875 70.90625 342.820312 69.539062 342.632812 67.570312 C 342.542969 66.59375 342.804688 65.574219 342.949219 64.582031 C 344.410156 54.609375 346.289062 44.6875 347.050781 34.625 C 347.21875 32.449219 348.253906 29.070312 344.96875 28.621094 C 341.972656 28.207031 341.609375 31.574219 340.929688 33.738281 C 338.148438 42.574219 337.410156 51.789062 336.21875 60.90625 C 335.511719 66.300781 334.542969 68.042969 331.597656 67.679688 C 328.53125 67.300781 327.792969 64.917969 328.40625 59.679688 C 329.679688 48.785156 330.710938 37.867188 331.835938 26.957031 C 331.875 26.582031 331.867188 26.195312 331.828125 25.820312 C 331.605469 23.75 332.132812 20.871094 329.640625 20.320312 C 327.074219 19.757812 326.261719 22.546875 325.539062 24.476562 C 324.570312 27.066406 323.824219 29.757812 323.230469 32.457031 C 321.070312 42.328125 319.890625 52.351562 318.914062 62.398438 C 318.648438 65.132812 317.367188 66.738281 314.65625 66.644531 C 311.691406 66.539062 310.671875 64.589844 310.617188 61.761719 C 310.445312 52.925781 310.183594 44.09375 309.867188 35.261719 C 309.796875 33.257812 309.417969 31.257812 309.085938 29.273438 C 308.867188 27.972656 308.25 26.71875 306.839844 26.53125 C 305.054688 26.292969 304.523438 27.835938 304.117188 29.144531 C 302.648438 33.878906 302.125 38.761719 301.996094 44.421875 M 273.644531 253.648438 C 273.636719 251.628906 273.417969 249.582031 273.667969 247.59375 C 274.164062 243.652344 272.476562 242.710938 268.738281 242.742188 C 247.90625 242.910156 227.074219 242.832031 206.246094 242.839844 C 205.488281 242.839844 204.730469 242.871094 203.972656 242.871094 C 201.964844 242.871094 201.394531 244.171875 201.351562 245.855469 C 201.300781 247.65625 202.597656 247.792969 203.941406 247.808594 C 205.707031 247.828125 207.476562 247.777344 209.242188 247.867188 C 211.75 247.992188 213.929688 248.910156 213.824219 251.78125 C 213.726562 254.558594 211.507812 255.007812 209.15625 254.992188 C 204.617188 254.960938 200.0625 254.757812 195.578125 255.761719 C 191.964844 256.570312 189.203125 258.433594 187.460938 262.1875 C 189.648438 262.59375 191.460938 262.144531 193.25 261.761719 C 198.6875 260.601562 204.140625 259.789062 209.734375 259.746094 C 215.957031 259.699219 222.335938 264.351562 220.003906 272.417969 C 219.667969 273.574219 219.554688 274.394531 220.804688 275.300781 C 227.25 279.957031 227.886719 282.539062 224.621094 289.96875 C 224.183594 290.964844 224.019531 291.71875 224.515625 292.78125 C 228.082031 300.402344 227.554688 302.699219 221.089844 308.378906 C 220.335938 309.039062 219.136719 309.660156 219.695312 310.777344 C 221.320312 314.003906 220.925781 317.34375 220.164062 320.777344 C 221.175781 320.992188 221.773438 321.230469 222.371094 321.230469 C 235.121094 321.253906 247.871094 321.253906 260.621094 321.246094 C 262.714844 321.242188 264.59375 320.472656 266.269531 319.304688 C 271.179688 315.882812 273.636719 311.136719 273.640625 305.15625 C 273.65625 288.238281 273.644531 271.320312 273.644531 253.648438 M 218.539062 282.9375 C 217.316406 281.230469 215.5 281.355469 213.726562 281.40625 C 210.152344 281.507812 206.765625 282.601562 203.351562 283.496094 C 197.492188 285.03125 191.679688 286.742188 185.804688 288.21875 C 183.710938 288.746094 181.625 288.339844 180.914062 285.867188 C 180.207031 283.417969 181.722656 282.070312 183.761719 281.234375 C 184.804688 280.808594 185.945312 280.636719 187.035156 280.320312 C 193.699219 278.375 200.398438 276.535156 207.011719 274.421875 C 209.777344 273.539062 213.992188 272.675781 213.003906 268.96875 C 212.101562 265.574219 208.074219 266.34375 205.0625 266.792969 C 195.941406 268.15625 186.867188 269.75 178.085938 272.671875 C 175.761719 273.445312 173.292969 273.734375 172.335938 270.917969 C 171.367188 268.0625 173.496094 266.625 175.886719 266.183594 C 178.683594 265.667969 179.003906 263.960938 179.097656 261.304688 C 177.945312 261.972656 177.1875 262.394531 176.453125 262.84375 C 164.414062 270.191406 156.191406 281.320312 147.519531 292.003906 C 146.46875 293.300781 146.484375 294.804688 146.535156 296.324219 C 146.792969 303.890625 148.890625 311.042969 151.945312 317.863281 C 154.589844 323.757812 158.015625 329.242188 163.152344 333.40625 C 164.109375 334.179688 165.082031 335.382812 166.460938 334.394531 C 171.144531 331.03125 176.734375 331.21875 182.035156 330.308594 C 192.472656 328.515625 202.386719 325.34375 211.246094 319.367188 C 212.605469 318.453125 214.277344 317.339844 213.246094 315.445312 C 212.296875 313.707031 210.488281 314.625 209.125 315.066406 C 205.160156 316.34375 201.277344 317.867188 197.304688 319.125 C 195.070312 319.835938 192.824219 319.527344 191.941406 317.003906 C 191 314.300781 192.984375 313.113281 195.109375 312.292969 C 199 310.789062 202.945312 309.4375 206.804688 307.867188 C 210.550781 306.347656 214.210938 304.597656 217.457031 302.152344 C 218.691406 301.222656 219.757812 299.847656 219.046875 298.234375 C 218.257812 296.464844 216.570312 296.855469 215.066406 297.28125 C 213.003906 297.859375 210.933594 298.425781 208.890625 299.074219 C 202.75 301.019531 196.640625 303.046875 190.488281 304.945312 C 188.347656 305.609375 186.375 305.21875 185.503906 302.832031 C 184.625 300.417969 185.96875 298.945312 188.019531 298.058594 C 189.636719 297.359375 191.351562 296.882812 193.023438 296.316406 C 199.960938 293.960938 206.949219 291.75 213.804688 289.183594 C 216.273438 288.261719 219.257812 287.199219 218.539062 282.9375 Z M 218.539062 282.9375 " fill-opacity="1" fill-rule="nonzero"/><path fill="#ffffff" d="M 193.953125 119.308594 C 194.9375 120.257812 195.214844 121.246094 195.328125 122.25 C 196.082031 129.007812 198.597656 135.121094 201.75 141.097656 C 204.078125 145.507812 203.238281 150.546875 200.355469 153.441406 C 197.125 156.679688 190.75 157.867188 186.582031 155.957031 C 184.492188 155 182.742188 153.585938 183.519531 151.011719 C 184.347656 148.277344 186.507812 148.324219 188.765625 149.164062 C 190.921875 149.964844 193.054688 150.140625 194.6875 148.246094 C 196.4375 146.210938 195.273438 144.105469 194.230469 142.269531 C 191.015625 136.601562 188.847656 130.613281 188.109375 124.121094 C 187.613281 119.746094 189.621094 117.9375 193.953125 119.308594 Z M 193.953125 119.308594 " fill-opacity="1" fill-rule="nonzero"/><path fill="#ffffff" d="M 175.078125 163.167969 C 180.378906 165.671875 185.628906 166.535156 191.152344 165.4375 C 193.839844 164.902344 196.511719 164.964844 197.109375 168.277344 C 197.691406 171.496094 195.085938 172.367188 192.632812 172.691406 C 182.417969 174.042969 173.074219 172.0625 165.140625 165.097656 C 164.089844 164.175781 163.171875 163.140625 162.6875 161.792969 C 162.105469 160.171875 162.523438 158.789062 163.785156 157.703125 C 165.152344 156.535156 166.644531 156.6875 167.917969 157.789062 C 170.117188 159.679688 172.238281 161.660156 175.078125 163.167969 Z M 175.078125 163.167969 " fill-opacity="1" fill-rule="nonzero"/><path fill="#ffffff" d="M 176.023438 113.691406 C 174.824219 116.558594 172.761719 116.75 170.632812 115.6875 C 165.5625 113.152344 160.753906 113.394531 155.9375 116.339844 C 153.820312 117.632812 151.476562 117.945312 150.058594 115.378906 C 148.722656 112.964844 150.347656 111.144531 152.207031 110.027344 C 159.0625 105.914062 166.164062 105.367188 173.363281 109.222656 C 174.996094 110.09375 176.171875 111.351562 176.023438 113.691406 Z M 176.023438 113.691406 " fill-opacity="1" fill-rule="nonzero"/><path fill="#ffffff" d="M 222.304688 113.007812 C 221.386719 116.21875 219.351562 116.742188 216.992188 115.359375 C 212.203125 112.550781 207.558594 112.28125 202.710938 115.183594 C 201.046875 116.175781 199.261719 115.898438 197.941406 114.296875 C 196.949219 113.101562 196.695312 111.714844 197.769531 110.5 C 201.113281 106.722656 205.609375 105.195312 210.367188 105.679688 C 215.199219 106.167969 220.265625 107.105469 222.304688 113.007812 Z M 222.304688 113.007812 " fill-opacity="1" fill-rule="nonzero"/><path fill="#ffffff" d="M 206.789062 121.847656 C 210.816406 119.503906 213.5625 120.5 214.839844 124.511719 C 215.746094 127.359375 215.71875 130.234375 214.746094 133.058594 C 213.984375 135.273438 212.484375 136.742188 210.003906 136.652344 C 207.703125 136.566406 206.273438 135.085938 205.675781 133.019531 C 204.59375 129.292969 204.550781 125.578125 206.789062 121.847656 Z M 206.789062 121.847656 " fill-opacity="1" fill-rule="nonzero"/><path fill="#ffffff" d="M 108.773438 142.835938 C 107.414062 142.460938 106.320312 142.207031 105.230469 141.933594 C 103.476562 141.488281 102.179688 140.515625 102.351562 138.554688 C 102.519531 136.65625 103.878906 135.722656 105.683594 135.5625 C 109.050781 135.265625 111.78125 136.773438 114.222656 138.875 C 117.046875 141.304688 118.96875 144.351562 120.210938 147.863281 C 120.921875 149.875 120.371094 151.410156 118.476562 152.214844 C 116.644531 152.992188 115.265625 151.996094 114.457031 150.394531 C 113.054688 147.605469 112.140625 144.488281 108.773438 142.835938 Z M 108.773438 142.835938 " fill-opacity="1" fill-rule="nonzero"/><path fill="#ffffff" d="M 164.550781 120.929688 C 168.261719 121.386719 169.15625 123.902344 169.589844 126.804688 C 170.082031 130.101562 170.285156 133.40625 167.652344 135.960938 C 166.136719 137.433594 164.179688 137.441406 162.457031 136.195312 C 158.875 133.605469 159.714844 129.726562 159.84375 126.160156 C 159.941406 123.40625 161.253906 121.367188 164.550781 120.929688 Z M 164.550781 120.929688 " fill-opacity="1" fill-rule="nonzero"/></svg>